:FULLY-SPECIFIED
:FORCE-ALL-JOINTS-BE-3DOF
:DEGREES
951
root 1.0964 15.2514 32.7344 6.81144 -3.90715 4.66489
lfemur 6.8755 1.66634 4.02798
ltibia 1.47526 -0 0
lfoot -29.7138 -12.4683 0.0790793
ltoes -32.9833 0 0
rfemur -32.4307 -16.1239 -7.0008
rtibia 49.6942 -0 0
rfoot -21.8536 5.02224 0.0788457
rtoes -42.2501 0 0
lowerback -2.07215 -0.491991 0.714614
upperback -1.43091 -0.683324 -6.67946
thorax -0.404565 -0.383823 -7.3731
lowerneck -6.42886 0.736677 4.75833
upperneck 0.883269 0.517647 3.32019
head 1.35553 0.348059 0.248376
lclavicle -8.69683e-15 2.70347e-14 0
lhumerus -59.48 -44.3736 113.556
lradius 55.3185 -0 0
lwrist 24.8981 0 0
lhand 39.9599 23.72 -0.00433287
lfingers 7.12502 -0 0
lthumb 62.3663 34.7843 0.00314342
rclavicle -8.69683e-15 2.70347e-14 0
rhumerus 5.25196 -39.8933 -1.22499
rradius 23.7432 -0 0
rwrist -14.8534 0 0
rhand -42.1372 -52.2607 -1.62215
rfingers 7.12502 -0 0
rthumb -14.8899 -82.4695 -1.86745
952
root 1.08289 15.2407 32.7268 6.75274 -4.10394 4.61284
lfemur 7.12597 1.81879 4.16663
ltibia 1.29458 -0 0
lfoot -29.7106 -12.3896 0.0751276
ltoes -33.0828 0 0
rfemur -32.6355 -16.2001 -6.84822
rtibia 49.9112 -0 0
rfoot -22.0534 5.21271 0.074871
rtoes -42.1529 0 0
lowerback -2.01409 -0.524816 0.720583
upperback -1.39729 -0.727504 -6.62867
thorax -0.407386 -0.405452 -7.32198
lowerneck -6.36806 0.813504 4.88833
upperneck 0.82141 0.615698 3.35045
head 1.32631 0.395577 0.238774
lclavicle -8.69683e-15 2.70347e-14 0
lhumerus -59.4544 -44.3924 113.653
lradius 55.2813 -0 0
lwrist 24.7583 0 0
lhand 39.8754 23.5846 -0.003572
lfingers 7.12502 -0 0
lthumb 62.2961 34.7383 0.00367873
rclavicle -8.69683e-15 2.70347e-14 0
rhumerus 5.30169 -38.7263 -0.838161
rradius 23.9745 -0 0
rwrist -14.6364 0 0
rhand -41.3041 -51.9726 -1.50593
rfingers 7.12502 -0 0
rthumb -14.0945 -82.1793 -1.73714
953
root 1.07096 15.2307 32.7189 6.68663 -4.29636 4.5628
lfemur 7.37565 1.96367 4.30295
ltibia 1.11527 -0 0
lfoot -29.6941 -12.3612 0.0680539
ltoes -33.1381 0 0
rfemur -32.8275 -16.2516 -6.7044
rtibia 50.1207 -0 0
rfoot -22.2199 5.38342 0.0676211
rtoes -42.0618 0 0
lowerback -1.95757 -0.558792 0.719127
upperback -1.36233 -0.77298 -6.57939
thorax -0.408031 -0.427614 -7.26825
lowerneck -6.30794 0.888896 5.0145
upperneck 0.76455 0.712 3.38538
head 1.29898 0.442366 0.231275
lclavicle -8.69683e-15 2.70347e-14 0
lhumerus -59.4173 -44.4041 113.736
lradius 55.2478 -0 0
lwrist 24.6119 0 0
lhand 39.7948 23.4586 -0.00261045
lfingers 7.12502 -0 0
lthumb 62.2289 34.696 0.00409377
rclavicle -8.69683e-15 2.70347e-14 0
rhumerus 5.32385 -37.2878 -0.495774
rradius 24.401 -0 0
rwrist -14.4045 0 0
rhand -40.2931 -51.5832 -1.33129
rfingers 7.12502 -0 0
rthumb -13.133 -81.7689 -1.53918
954
root 1.06045 15.2214 32.7108 6.61536 -4.48223 4.51509
lfemur 7.62104 2.09994 4.43563
ltibia 0.939579 -0 0
lfoot -29.6683 -12.3713 0.0587035
ltoes -33.1595 0 0
rfemur -33.0065 -16.2829 -6.56976
rtibia 50.3214 -0 0
rfoot -22.3585 5.53578 0.0579075
rtoes -41.9768 0 0
lowerback -1.90298 -0.592982 0.711997
upperback -1.32659 -0.818556 -6.53178
thorax -0.406731 -0.449733 -7.21307
lowerneck -6.24953 0.961947 5.13603
upperneck 0.712437 0.805378 3.42305
head 1.27358 0.487821 0.225373
lclavicle -8.69683e-15 2.70347e-14 0
lhumerus -59.3718 -44.4109 113.81
lradius 55.2175 -0 0
lwrist 24.4642 0 0
lhand 39.7167 23.343 -0.0015456
lfingers 7.12502 -0 0
lthumb 62.1635 34.66 0.00435381
rclavicle -8.69683e-15 2.70347e-14 0
rhumerus 5.32673 -35.6619 -0.195292
rradius 24.9703 -0 0
rwrist -14.1639 0 0
rhand -39.159 -51.117 -1.11923
rfingers 7.12502 -0 0
rthumb -12.0563 -81.2673 -1.29736
955
root 1.05123 15.2126 32.7026 6.54116 -4.65933 4.47001
lfemur 7.85864 2.22661 4.56332
ltibia 0.769751 -0 0
lfoot -29.6369 -12.4075 0.0479337
ltoes -33.157 0 0
rfemur -33.1725 -16.2985 -6.44467
rtibia 50.5125 -0 0
rfoot -22.4744 5.67118 0.0466059
rtoes -41.8973 0 0
lowerback -1.8507 -0.626453 0.700946
upperback -1.29062 -0.863038 -6.486
thorax -0.403713 -0.471232 -7.15762
lowerneck -6.19385 1.03175 5.25215
upperneck 0.664812 0.894649 3.46156
head 1.25015 0.531335 0.220559
lclavicle -8.69683e-15 2.70347e-14 0
lhumerus -59.3209 -44.4151 113.875
lradius 55.1902 -0 0
lwrist 24.3203 0 0
lhand 39.6397 23.2388 -0.000479431
lfingers 7.12502 -0 0
lthumb 62.0989 34.633 0.00442821
rclavicle -8.69683e-15 2.70347e-14 0
rhumerus 5.31701 -33.9326 0.0669367
rradius 25.6297 -0 0
rwrist -13.9208 0 0
rhand -37.9566 -50.5994 -0.889487
rfingers 7.12502 -0 0
rthumb -10.9158 -80.7045 -1.03412
956
root 1.04317 15.2044 32.6944 6.46629 -4.82544 4.42783
lfemur 8.08491 2.34269 4.68467
ltibia 0.60804 -0 0
lfoot -29.6041 -12.4578 0.0365948
ltoes -33.1406 0 0
rfemur -33.3255 -16.3026 -6.32947
rtibia 50.6928 -0 0
rfoot -22.5728 5.79103 0.0346447
rtoes -41.8232 0 0
lowerback -1.80112 -0.658275 0.687731
upperback -1.25497 -0.90523 -6.44221
thorax -0.399203 -0.491534 -7.10306
lowerneck -6.14192 1.09742 5.36203
upperneck 0.621405 0.978631 3.49897
head 1.22872 0.572302 0.216329
lclavicle -8.69683e-15 2.70347e-14 0
lhumerus -59.2678 -44.4188 113.934
lradius 55.1656 -0 0
lwrist 24.1854 0 0
lhand 39.5625 23.147 0.000482651
lfingers 7.12502 -0 0
lthumb 62.034 34.6178 0.0042909
rclavicle -8.69683e-15 2.70347e-14 0
rhumerus 5.30016 -32.1839 0.29548
rradius 26.3268 -0 0
rwrist -13.6814 0 0
rhand -36.7412 -50.0564 -0.659994
rfingers 7.12502 -0 0
rthumb -9.76309 -80.1115 -0.769977
957
root 1.03611 15.1967 32.6862 6.39298 -4.97835 4.38881
lfemur 8.29633 2.44723 4.7983
ltibia 0.456696 -0 0
lfoot -29.5736 -12.5101 0.0255195
ltoes -33.1205 0 0
rfemur -33.4655 -16.2999 -6.22445
rtibia 50.8612 -0 0
rfoot -22.659 5.89672 0.0229954
rtoes -41.7541 0 0
lowerback -1.75462 -0.687525 0.674108
upperback -1.22019 -0.943932 -6.40057
thorax -0.393425 -0.510061 -7.05057
lowerneck -6.09478 1.15806 5.46489
upperneck 0.581943 1.05614 3.53339
head 1.20932 0.610115 0.212174
lclavicle -8.69683e-15 2.70347e-14 0
lhumerus -59.2155 -44.4243 113.99
lradius 55.1434 -0 0
lwrist 24.0647 0 0
lhand 39.4837 23.0684 0.00123323
lfingers 7.12502 -0 0
lthumb 61.9676 34.6169 0.00392131
rclavicle -8.69683e-15 2.70347e-14 0
rhumerus 5.28086 -30.5 0.49559
rradius 27.009 -0 0
rwrist -13.452 0 0
rhand -35.5686 -49.5157 -0.44655
rfingers 7.12502 -0 0
rthumb -8.65067 -79.5207 -0.523181
958
root 1.02993 15.1894 32.6781 6.32347 -5.11582 4.3532
lfemur 8.48937 2.53927 4.90281
ltibia 0.31797 -0 0
lfoot -29.5493 -12.5521 0.0155209
ltoes -33.1066 0 0
rfemur -33.5927 -16.2946 -6.12985
rtibia 51.0168 -0 0
rfoot -22.7382 5.98964 0.0126636
rtoes -41.6898 0 0
lowerback -1.71161 -0.713278 0.661836
upperback -1.18682 -0.977948 -6.36123
thorax -0.386601 -0.526235 -7.0013
lowerneck -6.05346 1.21277 5.55992
upperneck 0.546144 1.12598 3.56288
head 1.19198 0.644167 0.207589
lclavicle -8.69683e-15 2.70347e-14 0
lhumerus -59.1672 -44.4337 114.045
lradius 55.1234 -0 0
lwrist 23.9633 0 0
lhand 39.4017 23.004 0.00166451
lfingers 7.12502 -0 0
lthumb 61.8986 34.6331 0.00330587
rclavicle -8.69683e-15 2.70347e-14 0
rhumerus 5.26334 -28.9651 0.672995
rradius 27.6236 -0 0
rwrist -13.2387 0 0
rhand -34.4952 -49.0056 -0.262781
rfingers 7.12502 -0 0
rthumb -7.63156 -78.9654 -0.309632
959
root 1.02448 15.1824 32.6702 6.26 -5.23564 4.32121
lfemur 8.66049 2.61791 4.9968
ltibia 0.194111 -0 0
lfoot -29.5354 -12.5718 0.00739784
ltoes -33.109 0 0
rfemur -33.7069 -16.2914 -6.04592
rtibia 51.1584 -0 0
rfoot -22.8156 6.07117 0.00468197
rtoes -41.6299 0 0
lowerback -1.67247 -0.734615 0.652675
upperback -1.15541 -1.00608 -6.32435
thorax -0.378952 -0.539476 -6.95644
lowerneck -6.01901 1.26068 5.64631
upperneck 0.513723 1.18696 3.58553
head 1.17673 0.673848 0.202067
lclavicle -8.69683e-15 2.70347e-14 0
lhumerus -59.126 -44.4493 114.102
lradius 55.1052 -0 0
lwrist 23.8863 0 0
lhand 39.3153 22.9549 0.0016702
lfingers 7.12502 -0 0
lthumb 61.8259 34.6691 0.00244006
rclavicle -8.69683e-15 2.70347e-14 0
rhumerus 5.25161 -27.6633 0.833727
rradius 28.1183 -0 0
rwrist -13.0478 0 0
rhand -33.5775 -48.5554 -0.120365
rfingers 7.12502 -0 0
rthumb -6.75929 -78.4798 -0.143147
960
root 1.01963 15.1758 32.6625 6.20481 -5.33558 4.29307
lfemur 8.80616 2.68221 5.07888
ltibia 0.0873713 -0 0
lfoot -29.5355 -12.557 0.00195
ltoes -33.1379 0 0
rfemur -33.8084 -16.2944 -5.97284
rtibia 51.2851 -0 0
rfoot -22.8966 6.14272 0.0001042
rtoes -41.5742 0 0
lowerback -1.63761 -0.750619 0.648387
upperback -1.1265 -1.02712 -6.29009
thorax -0.370698 -0.549205 -6.91714
lowerneck -5.99247 1.30089 5.72325
upperneck 0.484394 1.2379 3.59943
head 1.16362 0.698553 0.195102
lclavicle -8.69683e-15 2.70347e-14 0
lhumerus -59.0949 -44.4733 114.163
lradius 55.0886 -0 0
lwrist 23.839 0 0
lhand 39.2231 22.9218 0.00114762
lfingers 7.12502 -0 0
lthumb 61.7483 34.7275 0.00133088
rclavicle -8.69683e-15 2.70347e-14 0
rhumerus 5.24958 -26.6789 0.983961
rradius 28.4403 -0 0
rwrist -12.8855 0 0
rhand -32.8725 -48.1947 -0.0295517
rfingers 7.12502 -0 0
rthumb -6.08775 -78.0988 -0.036032
961
root 1.01523 15.1694 32.6552 6.16014 -5.41341 364.269
lfemur 8.92284 2.73127 5.14765
ltibia 6.36111e-15 0 0
lfoot -29.5538 -12.4956 0
ltoes -33.2032 0 0
rfemur -33.8973 -16.3082 -5.91082
rtibia 51.3956 0 0
rfoot -22.9862 6.20567 0
rtoes -41.5223 0 0
lowerback -1.60741 -0.760373 0.650732
upperback -1.10064 -1.03988 -6.25859
thorax -0.362058 -0.55484 -6.88457
lowerneck -5.97487 1.33253 5.78994
upperneck 0.457868 1.27761 3.60265
head 1.15266 0.717672 0.186187
lclavicle -1.59028e-15 1.27222e-14 0
lhumerus -59.0771 -44.5078 114.23
lradius 55.0733 0 0
lwrist 23.8266 0 0
lhand 39.1236 22.9059 0
lfingers 7.12502 0 0
lthumb 61.6648 34.8111 0
rclavicle -1.59028e-15 1.27222e-14 0
rhumerus 5.26115 -26.0962 1.12987
rradius 28.5372 0 0
rwrist -12.7579 0 0
rhand -32.4372 -47.953 0
rfingers 7.12502 0 0
rthumb -5.67085 -797.857 0
962
root 1.01208 15.1635 32.648 6.12209 -5.4671 4.25028
lfemur 9.01009 2.76181 5.20148
ltibia -0.0676203 0 0
lfoot -29.5845 -12.4121 6.84139e-05
ltoes -33.2835 0 0
rfemur -33.9686 -16.3196 -5.86509
rtibia 51.4891 -0 0
rfoot -23.0677 6.25001 0.00220207
rtoes -41.4742 0 0
lowerback -1.5827 -0.764611 0.656074
upperback -1.07674 -1.04519 -6.23054
thorax -0.351521 -0.55674 -6.85742
lowerneck -5.96638 1.35482 5.84486
upperneck 0.435375 1.30505 3.59674
head 1.14437 0.730722 0.176038
lclavicle -1.59028e-15 1.27222e-14 0
lhumerus -59.0674 -44.5501 114.298
lradius 55.0613 -0 0
lwrist 23.8489 0 0
lhand 39.0157 22.9143 -0.00153176
lfingers 7.12502 -0 0
lthumb 61.5741 34.9272 -0.00157472
rclavicle -1.59028e-15 1.27222e-14 0
rhumerus 5.26506 -25.7775 1.25049
rradius 28.5069 -0 0
rwrist -12.6579 0 0
rhand -32.179 -47.7747 -0.00397036
rfingers 7.12502 -0 0
rthumb -5.42168 -77.6891 -0.00318886
963
root 1.0109 15.1583 32.6408 6.08519 -5.49775 4.23758
lfemur 9.07159 2.77261 5.24067
ltibia -0.11781 0 0
lfoot -29.6191 -12.3384 0.000109291
ltoes -33.3513 0 0
rfemur -34.0186 -16.3139 -5.83928
rtibia 51.5661 -0 0
rfoot -23.1226 6.26681 0.00381212
rtoes -41.4303 0 0
lowerback -1.56361 -0.764931 0.65972
upperback -1.05337 -1.04503 -6.20627
thorax -0.337721 -0.555842 -6.83336
lowerneck -5.96596 1.36824 5.8878
upperneck 0.418136 1.32086 3.58505
head 1.13907 0.738051 0.165769
lclavicle -1.59028e-15 1.27222e-14 0
lhumerus -59.0582 -44.5954 114.359
lradius 55.0544 -0 0
lwrist 23.9001 0 0
lhand 38.9 22.9513 -0.00307682
lfingers 7.12502 -0 0
lthumb 61.4768 35.0782 -0.00332652
rclavicle -1.59028e-15 1.27222e-14 0
rhumerus 5.23961 -25.5245 1.32415
rradius 28.482 -0 0
rwrist -12.5731 0 0
rhand -31.9647 -47.5856 -0.00716509
rfingers 7.12502 -0 0
rthumb -5.21487 -77.5083 -0.00576472
